<?xml version="1.0" encoding="iso-8859-1"?>
<!-- Generator: Adobe Illustrator 19.0.0, SVG Export Plug-In . SVG Version: 6.00 Build 0)  -->
<svg version="1.1" id="Layer_1" xmlns="http://www.w3.org/2000/svg" xmlns:xlink="http://www.w3.org/1999/xlink" x="0px" y="0px"
	 viewBox="0 0 512 512" style="enable-background:new 0 0 512 512;" xml:space="preserve">
<g>
	<g>
		<path d="M396.8,281.6c-27.153,0-52.105,9.506-71.817,25.284l-9.25-9.25v-83.268l9.25-9.25
			c19.712,15.778,44.664,25.284,71.817,25.284c63.522,0,115.2-51.678,115.2-115.2S460.322,0,396.8,0S281.6,51.678,281.6,115.2
			c0,27.153,9.498,52.104,25.276,71.825l-9.242,9.242h-83.268l-9.25-9.242c15.787-19.721,25.284-44.672,25.284-71.825
			C230.4,51.678,178.722,0,115.2,0S0,51.678,0,115.2s51.678,115.2,115.2,115.2c27.153,0,52.104-9.506,71.817-25.276l9.25,9.242
			v83.268l-9.25,9.242c-19.712-15.77-44.663-25.276-71.817-25.276C51.678,281.6,0,333.278,0,396.8S51.678,512,115.2,512
			s115.2-51.678,115.2-115.2c0-27.153-9.498-52.105-25.276-71.825l9.242-9.242h83.268l9.25,9.242
			C291.098,344.695,281.6,369.647,281.6,396.8c0,63.522,51.678,115.2,115.2,115.2S512,460.322,512,396.8S460.322,281.6,396.8,281.6z
			 M115.2,486.4c-49.485,0-89.6-40.115-89.6-89.6s40.115-89.6,89.6-89.6c20.122,0,38.63,6.716,53.589,17.911l-58.505,58.505
			c-15.087-1.809-24.951-11.639-24.951-20.949c0-7.066-5.726-12.8-12.8-12.8c-7.074,0-12.8,5.734-12.8,12.8
			c0,22.579,21.205,46.933,55.467,46.933c17.869,0,29.867,11.034,29.867,21.333c0,7.066,5.726,12.8,12.8,12.8
			c7.074,0,12.8-5.734,12.8-12.8c0-16.213-10.982-33.297-29.833-41.66l46.054-46.054c11.196,14.95,17.911,33.459,17.911,53.581
			C204.8,446.285,164.685,486.4,115.2,486.4z M186.889,168.789l-58.505-58.505c1.809-15.087,11.631-24.951,20.949-24.951
			c7.074,0,12.8-5.734,12.8-12.8s-5.726-12.8-12.8-12.8c-22.571,0-46.933,21.205-46.933,55.467
			c0,17.869-11.025,29.867-21.333,29.867c-7.074,0-12.8,5.734-12.8,12.8c0,7.066,5.726,12.8,12.8,12.8
			c16.213,0,33.289-10.982,41.66-29.841l46.054,46.054c-14.95,11.204-33.459,17.92-53.581,17.92c-49.485,0-89.6-40.115-89.6-89.6
			s40.115-89.6,89.6-89.6s89.6,40.115,89.6,89.6C204.8,135.322,198.084,153.83,186.889,168.789z M290.133,290.133h-68.267v-68.267
			h68.267V290.133z M396.8,25.6c49.485,0,89.6,40.115,89.6,89.6s-40.115,89.6-89.6,89.6c-20.122,0-38.63-6.716-53.589-17.911
			l58.505-58.505c15.087,1.809,24.951,11.639,24.951,20.949c0,7.066,5.726,12.8,12.8,12.8c7.074,0,12.8-5.734,12.8-12.8
			c0-22.579-21.205-46.933-55.467-46.933c-17.869,0-29.867-11.034-29.867-21.333c0-7.066-5.726-12.8-12.8-12.8
			c-7.074,0-12.8,5.734-12.8,12.8c0,16.213,10.982,33.297,29.833,41.66l-46.054,46.054C313.916,153.83,307.2,135.322,307.2,115.2
			C307.2,65.715,347.315,25.6,396.8,25.6z M396.8,486.4c-49.485,0-89.6-40.115-89.6-89.6c0-20.122,6.716-38.63,17.911-53.589
			l58.505,58.505c-1.809,15.087-11.631,24.951-20.949,24.951c-7.074,0-12.8,5.734-12.8,12.8c0,7.066,5.726,12.8,12.8,12.8
			c22.571,0,46.933-21.205,46.933-55.467c0-17.869,11.025-29.867,21.333-29.867c7.074,0,12.8-5.734,12.8-12.8s-5.726-12.8-12.8-12.8
			c-16.213,0-33.289,10.982-41.66,29.841l-46.054-46.054c14.95-11.204,33.459-17.92,53.581-17.92c49.485,0,89.6,40.115,89.6,89.6
			S446.285,486.4,396.8,486.4z"/>
	</g>
</g>
<g>
</g>
<g>
</g>
<g>
</g>
<g>
</g>
<g>
</g>
<g>
</g>
<g>
</g>
<g>
</g>
<g>
</g>
<g>
</g>
<g>
</g>
<g>
</g>
<g>
</g>
<g>
</g>
<g>
</g>
</svg>
