<?xml version="1.0" standalone="no"?>
<!DOCTYPE svg PUBLIC "-//W3C//DTD SVG 20010904//EN"
 "http://www.w3.org/TR/2001/REC-SVG-20010904/DTD/svg10.dtd">
<svg version="1.0" xmlns="http://www.w3.org/2000/svg"
 width="303.000000pt" height="166.000000pt" viewBox="0 0 303.000000 166.000000"
 preserveAspectRatio="xMidYMid meet">
<metadata>
Created by potrace 1.16, written by Peter Selinger 2001-2019
</metadata>
<g transform="translate(0.000000,166.000000) scale(0.100000,-0.100000)"
fill="#000000" stroke="none">
<path d="M1510 1512 c-72 -36 -144 -175 -207 -397 -14 -49 -27 -91 -28 -93 -1
-1 -56 -12 -121 -23 -108 -19 -224 -42 -266 -55 -15 -5 -18 1 -18 39 l0 45
153 4 c135 3 157 6 195 26 54 29 82 73 82 132 0 61 -27 102 -87 131 -44 22
-63 24 -214 27 l-167 4 -40 -54 -41 -53 193 -5 c206 -5 226 -10 226 -56 0 -13
-9 -28 -19 -34 -12 -6 -100 -10 -215 -10 l-196 0 0 -110 c0 -107 1 -110 23
-111 12 0 -27 -18 -88 -38 -60 -21 -150 -55 -200 -76 -102 -42 -348 -166 -341
-172 2 -2 44 -8 92 -13 l89 -10 150 75 c83 40 194 90 249 110 120 44 328 98
455 118 l94 15 -7 -98 c-7 -103 5 -242 28 -321 50 -167 148 -229 266 -169 48
25 123 106 155 170 l27 53 40 -64 c57 -90 100 -156 96 -144 -2 6 -30 62 -62
126 l-58 116 56 111 c31 62 54 112 52 112 -2 0 -30 -40 -62 -90 -33 -49 -62
-90 -65 -90 -13 0 -78 190 -93 274 l-7 38 123 -6 c293 -16 656 -81 872 -156
33 -11 61 -18 63 -17 6 7 -174 86 -270 119 -50 17 -94 33 -95 34 -2 1 13 24
33 51 l37 48 -174 5 c-146 4 -177 8 -200 23 -44 30 -55 102 -20 140 32 37 76
47 200 47 l118 0 37 50 c20 27 37 52 37 55 0 10 -309 5 -359 -6 -144 -31 -219
-158 -167 -283 l16 -39 -49 7 c-66 9 -469 9 -483 0 -14 -9 -8 19 33 146 46
143 104 257 142 280 52 32 94 26 136 -18 35 -38 102 -162 136 -255 28 -76 29
-47 1 58 -38 143 -90 233 -157 274 -42 26 -83 27 -129 3z m85 -658 c23 -89 45
-143 91 -216 l23 -36 -49 -70 c-139 -198 -259 -205 -316 -18 -24 80 -37 230
-27 331 l8 90 80 6 c44 3 100 5 124 5 l43 -1 23 -91z"/>
<path d="M1440 590 c0 -93 1 -100 20 -100 18 0 20 7 20 66 l0 67 50 -67 c71
-93 80 -89 80 34 0 92 -1 100 -20 100 -16 0 -19 -8 -22 -57 l-3 -57 -43 57
c-26 36 -50 57 -62 57 -19 0 -20 -7 -20 -100z"/>
<path d="M237 1340 c-53 -10 -90 -40 -106 -87 -13 -35 -13 -46 0 -79 26 -68
57 -78 252 -82 175 -4 197 -11 167 -47 -10 -12 -45 -15 -185 -15 l-173 0 -33
-42 c-18 -24 -37 -49 -43 -56 -8 -11 31 -13 225 -10 205 3 239 5 272 22 45 22
67 60 67 116 0 97 -34 113 -255 120 -156 5 -170 7 -173 24 -2 10 2 22 10 27 7
5 83 9 170 9 l156 0 33 43 c18 23 37 48 42 55 8 9 -32 12 -189 11 -110 -1
-216 -5 -237 -9z"/>
<path d="M2444 1337 c-2 -7 -3 -102 -2 -212 l3 -200 202 -3 202 -2 40 52 40
53 -179 3 -180 2 0 30 0 30 134 0 134 0 32 43 31 42 -163 5 -163 5 0 25 0 25
140 3 140 3 35 47 c19 26 37 50 38 54 2 5 -105 8 -237 8 -187 0 -243 -3 -247
-13z"/>
<path d="M2010 300 l0 -140 85 0 c69 0 85 3 85 15 0 12 -14 15 -65 15 l-65 0
0 125 c0 118 -1 125 -20 125 -19 0 -20 -7 -20 -140z"/>
<path d="M2307 433 c-4 -7 -50 -115 -104 -240 -12 -30 -12 -33 4 -33 11 0 24
15 35 40 l17 40 65 0 66 0 16 -40 c11 -26 22 -40 35 -40 16 0 11 15 -33 113
-27 61 -55 124 -60 140 -9 25 -31 36 -41 20z"/>
<path d="M2500 300 l0 -140 70 0 c62 0 74 3 95 25 14 13 25 36 25 50 0 25 -25
58 -51 68 -11 4 -11 7 3 18 20 17 24 36 15 70 -8 33 -44 49 -107 49 l-50 0 0
-140z"/>
<path d="M2757 429 c-26 -15 -38 -54 -27 -83 5 -14 31 -39 59 -57 52 -34 65
-55 49 -83 -12 -21 -66 -21 -96 0 -21 14 -22 14 -19 -8 3 -16 15 -27 41 -36
46 -15 82 -1 105 39 21 38 2 77 -60 117 -27 18 -52 39 -56 48 -13 36 51 58 98
34 16 -9 19 -7 19 8 0 30 -74 43 -113 21z"/>
</g>
</svg>
